# Blender v2.79 (sub 0) OBJ File: ''
# www.blender.org
mtllib REDS_firstaidv.mtl
o i23v
v 0.305664 10.709961 1.705567
v 0.304688 11.240234 1.700196
v 0.938965 10.709961 1.469239
v 0.937500 11.240234 1.459473
v 1.419922 10.709961 0.990235
v 1.418945 11.240234 0.984864
v 1.700195 10.709961 0.370606
v 1.700195 11.240234 0.370606
v 1.700195 10.709961 -0.304687
v 1.700195 11.240234 -0.304687
v 1.459473 10.709961 -0.937500
v 1.459473 11.240234 -0.937500
v 0.984863 10.709961 -1.418945
v 0.984863 11.240234 -1.418945
v 0.370605 10.709961 -1.700195
v 0.370605 11.240234 -1.700195
v -0.305664 10.709961 -1.705566
v -0.304688 11.240234 -1.700195
v -0.938965 10.709961 -1.469238
v -0.937500 11.240234 -1.459472
v -1.419922 10.709961 -0.990234
v -1.418945 11.240234 -0.984863
v -1.700195 10.709961 -0.370605
v -1.700195 11.240234 -0.370605
v -1.700195 10.709961 0.304688
v -1.700195 11.240234 0.304688
v -1.459473 10.709961 0.937500
v -1.459473 11.240234 0.937500
v -0.984863 10.709961 1.418946
v -0.984863 11.240234 1.418946
v -0.370605 10.709961 1.700196
v -0.370605 11.240234 1.700196
v 0.305664 10.709961 1.705567
v 0.304688 11.240234 1.700196
v 0.304688 11.240234 1.700196
v 0.405273 11.229980 2.299805
v 0.937500 11.240234 1.459473
v 1.262695 11.229980 1.980958
v 1.418945 11.240234 0.984864
v 1.913574 11.229980 1.340333
v 1.700195 11.240234 0.370606
v 2.293457 11.229980 0.509766
v 1.700195 11.240234 -0.304687
v 2.299805 11.229980 -0.405273
v 1.459473 11.240234 -0.937500
v 1.980957 11.229980 -1.262695
v 0.984863 11.240234 -1.418945
v 1.340332 11.229980 -1.913574
v 0.370605 11.240234 -1.700195
v 0.509766 11.229980 -2.293457
v -0.304688 11.240234 -1.700195
v -0.405273 11.229980 -2.299804
v -0.937500 11.240234 -1.459472
v -1.262695 11.229980 -1.980957
v -1.418945 11.240234 -0.984863
v -1.913574 11.229980 -1.340332
v -1.700195 11.240234 -0.370605
v -2.293457 11.229980 -0.509765
v -1.700195 11.240234 0.304688
v -2.299805 11.229980 0.405274
v -1.459473 11.240234 0.937500
v -1.980957 11.229980 1.262696
v -0.984863 11.240234 1.418946
v -1.340332 11.229980 1.913575
v -0.370605 11.240234 1.700196
v -0.509766 11.229980 2.293458
v 0.304688 11.240234 1.700196
v 0.405273 11.229980 2.299805
v 0.405273 11.229980 2.299805
v 0.405273 10.689941 2.299805
v 1.262695 11.229980 1.980958
v 1.262695 10.689941 1.980958
v 1.913574 11.229980 1.340333
v 1.913574 10.689941 1.340333
v 2.293457 11.229980 0.509766
v 2.293457 10.689941 0.509766
v 2.299805 11.229980 -0.405273
v 2.299805 10.689941 -0.405273
v 1.980957 11.229980 -1.262695
v 1.980957 10.689941 -1.262695
v 1.340332 11.229980 -1.913574
v 1.340332 10.689941 -1.913574
v 0.509766 11.229980 -2.293457
v 0.509766 10.689941 -2.293457
v -0.405273 11.229980 -2.299804
v -0.405273 10.689941 -2.299804
v -1.262695 11.229980 -1.980957
v -1.262695 10.689941 -1.980957
v -1.913574 11.229980 -1.340332
v -1.913574 10.689941 -1.340332
v -2.293457 11.229980 -0.509765
v -2.293457 10.689941 -0.509765
v -2.299805 11.229980 0.405274
v -2.299805 10.689941 0.405274
v -1.980957 11.229980 1.262696
v -1.980957 10.689941 1.262696
v -1.340332 11.229980 1.913575
v -1.340332 10.689941 1.913575
v -0.509766 11.229980 2.293458
v -0.509766 10.689941 2.293458
v 0.405273 11.229980 2.299805
v 0.405273 10.689941 2.299805
v 0.724121 7.850098 4.079590
v 0.778320 8.629883 4.386719
v 2.243652 7.850098 3.514160
v 2.412109 8.629883 3.778809
v 3.395996 7.850098 2.374024
v 3.651367 8.629883 2.553223
v 4.067383 7.850098 0.897950
v 4.374023 8.629883 0.965821
v 4.079590 7.850098 -0.724121
v 4.386719 8.629883 -0.778320
v 3.514160 7.850098 -2.243652
v 3.778809 8.629883 -2.412109
v 2.374023 7.850098 -3.395996
v 2.553223 8.629883 -3.651367
v 0.897949 7.850098 -4.067382
v 0.965820 8.629883 -4.374023
v -0.724121 7.850098 -4.079589
v -0.778320 8.629883 -4.386718
v -2.243652 7.850098 -3.514160
v -2.412109 8.629883 -3.778808
v -3.395996 7.850098 -2.374023
v -3.651367 8.629883 -2.553222
v -4.067383 7.850098 -0.897949
v -4.374023 8.629883 -0.965820
v -4.079590 7.850098 0.724121
v -4.386719 8.629883 0.778321
v -3.514160 7.850098 2.243653
v -3.778809 8.629883 2.412110
v -2.374023 7.850098 3.395996
v -2.553223 8.629883 3.651368
v -0.897949 7.850098 4.067383
v -0.965820 8.629883 4.374024
v 0.724121 7.850098 4.079590
v 0.778320 8.629883 4.386719
v 0.778320 8.629883 4.386719
v 0.778320 8.080078 4.386719
v 2.412109 8.629883 3.778809
v 2.412109 8.080078 3.778809
v 3.651367 8.629883 2.553223
v 3.651367 8.080078 2.553223
v 4.374023 8.629883 0.965821
v 4.374023 8.080078 0.965821
v 4.386719 8.629883 -0.778320
v 4.386719 8.080078 -0.778320
v 3.778809 8.629883 -2.412109
v 3.778809 8.080078 -2.412109
v 2.553223 8.629883 -3.651367
v 2.553223 8.080078 -3.651367
v 0.965820 8.629883 -4.374023
v 0.965820 8.080078 -4.374023
v -0.778320 8.629883 -4.386718
v -0.778320 8.080078 -4.386718
v -2.412109 8.629883 -3.778808
v -2.412109 8.080078 -3.778809
v -3.651367 8.629883 -2.553222
v -3.651367 8.080078 -2.553223
v -4.374023 8.629883 -0.965820
v -4.374023 8.080078 -0.965820
v -4.386719 8.629883 0.778321
v -4.386719 8.080078 0.778321
v -3.778809 8.629883 2.412110
v -3.778809 8.080078 2.412110
v -2.553223 8.629883 3.651368
v -2.553223 8.080078 3.651367
v -0.965820 8.629883 4.374024
v -0.965820 8.080078 4.374024
v 0.778320 8.629883 4.386719
v 0.778320 8.080078 4.386719
v 0.778320 8.080078 4.386719
v 0.875977 7.189942 4.910645
v 2.412109 8.080078 3.778809
v 2.704102 7.189942 4.225098
v 3.651367 8.080078 2.553223
v 4.091797 7.189942 2.852539
v 4.374023 8.080078 0.965821
v 4.900879 7.189942 1.076172
v 4.386719 8.080078 -0.778320
v 4.910645 7.189942 -0.875976
v 3.778809 8.080078 -2.412109
v 4.225098 7.189942 -2.704101
v 2.553223 8.080078 -3.651367
v 2.852539 7.189942 -4.091796
v 0.965820 8.080078 -4.374023
v 1.076172 7.189942 -4.900878
v -0.778320 8.080078 -4.386718
v -0.875977 7.189942 -4.910644
v -2.412109 8.080078 -3.778809
v -2.704102 7.189942 -4.225097
v -3.651367 8.080078 -2.553223
v -4.091797 7.189942 -2.852539
v -4.374023 8.080078 -0.965820
v -4.900879 7.189942 -1.076172
v -4.386719 8.080078 0.778321
v -4.910645 7.189942 0.875977
v -3.778809 8.080078 2.412110
v -4.225098 7.189942 2.704102
v -2.553223 8.080078 3.651367
v -2.852539 7.189942 4.091797
v -0.965820 8.080078 4.374024
v -1.076172 7.189942 4.900879
v 0.778320 8.080078 4.386719
v 0.875977 7.189942 4.910645
v 0.778320 -13.229980 4.386718
v 0.875977 -12.290039 4.910644
v -0.965820 -13.229980 4.374023
v -1.076172 -12.290039 4.900878
v -2.553223 -13.229980 3.651367
v -2.852539 -12.290039 4.091796
v -3.778809 -13.229980 2.412109
v -4.225098 -12.290039 2.704101
v -4.386719 -13.229980 0.778320
v -4.910645 -12.290039 0.875976
v -4.374023 -13.229980 -0.965821
v -4.900879 -12.290039 -1.076172
v -3.651367 -13.229980 -2.553223
v -4.091797 -12.290039 -2.852540
v -2.412109 -13.229980 -3.778809
v -2.704102 -12.290039 -4.225098
v -0.778320 -13.229980 -4.386719
v -0.875977 -12.290039 -4.910645
v 0.965820 -13.229980 -4.374024
v 1.076172 -12.290039 -4.900879
v 2.553223 -13.229980 -3.651368
v 2.852539 -12.290039 -4.091797
v 3.778809 -13.229980 -2.412110
v 4.225098 -12.290039 -2.704102
v 4.386719 -13.229980 -0.778321
v 4.910645 -12.290039 -0.875977
v 4.374023 -13.229980 0.965820
v 4.900879 -12.290039 1.076171
v 3.651367 -13.229980 2.553222
v 4.091797 -12.290039 2.852539
v 2.412109 -13.229980 3.778808
v 2.704102 -12.290039 4.225097
v 0.778320 -13.229980 4.386718
v 0.875977 -12.290039 4.910644
v 0.405273 10.689941 2.299805
v 0.509766 10.020020 2.893555
v 1.262695 10.689941 1.980958
v 1.586426 10.020020 2.492676
v 1.913574 10.689941 1.340333
v 2.405762 10.020020 1.685059
v 2.293457 10.689941 0.509766
v 2.884766 10.020020 0.639161
v 2.299805 10.689941 -0.405273
v 2.893555 10.020020 -0.509765
v 1.980957 10.689941 -1.262695
v 2.492676 10.020020 -1.586425
v 1.340332 10.689941 -1.913574
v 1.685059 10.020020 -2.405761
v 0.509766 10.689941 -2.293457
v 0.639160 10.020020 -2.884765
v -0.405273 10.689941 -2.299804
v -0.509766 10.020020 -2.893554
v -1.262695 10.689941 -1.980957
v -1.586426 10.020020 -2.492675
v -1.913574 10.689941 -1.340332
v -2.405762 10.020020 -1.685058
v -2.293457 10.689941 -0.509765
v -2.884766 10.020020 -0.639160
v -2.299805 10.689941 0.405274
v -2.893555 10.020020 0.509766
v -1.980957 10.689941 1.262696
v -2.492676 10.020020 1.586426
v -1.340332 10.689941 1.913575
v -1.685059 10.020020 2.405762
v -0.509766 10.689941 2.293458
v -0.639160 10.020020 2.884766
v 0.405273 10.689941 2.299805
v 0.509766 10.020020 2.893555
v 0.584961 8.879883 3.290040
v 0.724121 7.850098 4.079590
v 1.808106 8.879883 2.829102
v 2.243652 7.850098 3.514160
v 2.740234 8.879883 1.910157
v 3.395996 7.850098 2.374024
v 3.284668 8.879883 0.721192
v 4.067383 7.850098 0.897950
v 3.290039 8.879883 -0.584961
v 4.079590 7.850098 -0.724121
v 2.829102 8.879883 -1.808105
v 3.514160 7.850098 -2.243652
v 1.910156 8.879883 -2.740234
v 2.374023 7.850098 -3.395996
v 0.721191 8.879883 -3.284667
v 0.897949 7.850098 -4.067382
v -0.584961 8.879883 -3.290039
v -0.724121 7.850098 -4.079589
v -1.808106 8.879883 -2.829101
v -2.243652 7.850098 -3.514160
v -2.740234 8.879883 -1.910156
v -3.395996 7.850098 -2.374023
v -3.284668 8.879883 -0.721191
v -4.067383 7.850098 -0.897949
v -3.290039 8.879883 0.584961
v -4.079590 7.850098 0.724121
v -2.829102 8.879883 1.808106
v -3.514160 7.850098 2.243653
v -1.910156 8.879883 2.740235
v -2.374023 7.850098 3.395996
v -0.721191 8.879883 3.284668
v -0.897949 7.850098 4.067383
v 0.584961 8.879883 3.290040
v 0.724121 7.850098 4.079590
v -0.730957 -13.680176 -4.119629
v -0.778320 -13.455078 -4.386719
v 0.907227 -13.680176 -4.107422
v 0.965820 -13.455078 -4.374024
v 2.397461 -13.680176 -3.428712
v 2.553223 -13.455078 -3.651368
v 3.548828 -13.680176 -2.265137
v 3.778809 -13.455078 -2.412110
v 4.119629 -13.680176 -0.730958
v 4.386719 -13.455078 -0.778321
v 4.107422 -13.680176 0.907226
v 4.374023 -13.455078 0.965820
v 3.428711 -13.680176 2.397460
v 3.651367 -13.455078 2.553222
v 2.265137 -13.680176 3.548827
v 2.412109 -13.455078 3.778808
v 0.730957 -13.680176 4.119628
v 0.778320 -13.455078 4.386718
v -0.907227 -13.680176 4.107421
v -0.965820 -13.455078 4.374023
v -2.397461 -13.680176 3.428710
v -2.553223 -13.455078 3.651367
v -3.548828 -13.680176 2.265136
v -3.778809 -13.455078 2.412109
v -4.119629 -13.680176 0.730956
v -4.386719 -13.455078 0.778320
v -4.107422 -13.680176 -0.907227
v -4.374023 -13.455078 -0.965821
v -3.428711 -13.680176 -2.397462
v -3.651367 -13.455078 -2.553223
v -2.265137 -13.680176 -3.548829
v -2.412109 -13.455078 -3.778809
v -0.730957 -13.680176 -4.119629
v -0.778320 -13.455078 -4.386719
v 0.875977 -12.290039 4.910644
v 0.875977 7.189942 4.910645
v -1.076172 -12.290039 4.900878
v -1.076172 7.189942 4.900879
v -2.852539 -12.290039 4.091796
v -2.852539 7.189942 4.091797
v -4.225098 -12.290039 2.704101
v -4.225098 7.189942 2.704102
v -4.910645 -12.290039 0.875976
v -4.910645 7.189942 0.875977
v -4.900879 -12.290039 -1.076172
v -4.900879 7.189942 -1.076172
v -4.091797 -12.290039 -2.852540
v -4.091797 7.189942 -2.852539
v -2.704102 -12.290039 -4.225098
v -2.704102 7.189942 -4.225097
v -0.875977 -12.290039 -4.910645
v -0.875977 7.189942 -4.910644
v 1.076172 -12.290039 -4.900879
v 1.076172 7.189942 -4.900878
v 2.852539 -12.290039 -4.091797
v 2.852539 7.189942 -4.091796
v 4.225098 -12.290039 -2.704102
v 4.225098 7.189942 -2.704101
v 4.910645 -12.290039 -0.875977
v 4.910645 7.189942 -0.875976
v 4.900879 -12.290039 1.076171
v 4.900879 7.189942 1.076172
v 4.091797 -12.290039 2.852539
v 4.091797 7.189942 2.852539
v 2.704102 -12.290039 4.225097
v 2.704102 7.189942 4.225098
v 0.875977 -12.290039 4.910644
v 0.875977 7.189942 4.910645
v 0.778320 -13.229980 4.386718
v 0.778320 -13.455078 4.386718
v 2.412109 -13.229980 3.778808
v 2.412109 -13.455078 3.778808
v 3.651367 -13.229980 2.553222
v 3.651367 -13.455078 2.553222
v 4.374023 -13.229980 0.965820
v 4.374023 -13.455078 0.965820
v 4.386719 -13.229980 -0.778321
v 4.386719 -13.455078 -0.778321
v 3.778809 -13.229980 -2.412110
v 3.778809 -13.455078 -2.412110
v 2.553223 -13.229980 -3.651368
v 2.553223 -13.455078 -3.651368
v 0.965820 -13.229980 -4.374024
v 0.965820 -13.455078 -4.374024
v -0.778320 -13.229980 -4.386719
v -0.778320 -13.455078 -4.386719
v -2.412109 -13.229980 -3.778809
v -2.412109 -13.455078 -3.778809
v -3.651367 -13.229980 -2.553223
v -3.651367 -13.455078 -2.553223
v -4.374023 -13.229980 -0.965821
v -4.374023 -13.455078 -0.965821
v -4.386719 -13.229980 0.778320
v -4.386719 -13.455078 0.778320
v -3.778809 -13.229980 2.412109
v -3.778809 -13.455078 2.412109
v -2.553223 -13.229980 3.651367
v -2.553223 -13.455078 3.651367
v -0.965820 -13.229980 4.374023
v -0.965820 -13.455078 4.374023
v 0.778320 -13.229980 4.386718
v 0.778320 -13.455078 4.386718
v 0.509766 10.020020 2.893555
v 0.584961 8.879883 3.290040
v 1.586426 10.020020 2.492676
v 1.808106 8.879883 2.829102
v 2.405762 10.020020 1.685059
v 2.740234 8.879883 1.910157
v 2.884766 10.020020 0.639161
v 3.284668 8.879883 0.721192
v 2.893555 10.020020 -0.509765
v 3.290039 8.879883 -0.584961
v 2.492676 10.020020 -1.586425
v 2.829102 8.879883 -1.808105
v 1.685059 10.020020 -2.405761
v 1.910156 8.879883 -2.740234
v 0.639160 10.020020 -2.884765
v 0.721191 8.879883 -3.284667
v -0.509766 10.020020 -2.893554
v -0.584961 8.879883 -3.290039
v -1.586426 10.020020 -2.492675
v -1.808106 8.879883 -2.829101
v -2.405762 10.020020 -1.685058
v -2.740234 8.879883 -1.910156
v -2.884766 10.020020 -0.639160
v -3.284668 8.879883 -0.721191
v -2.893555 10.020020 0.509766
v -3.290039 8.879883 0.584961
v -2.492676 10.020020 1.586426
v -2.829102 8.879883 1.808106
v -1.685059 10.020020 2.405762
v -1.910156 8.879883 2.740235
v -0.639160 10.020020 2.884766
v -0.721191 8.879883 3.284668
v 0.509766 10.020020 2.893555
v 0.584961 8.879883 3.290040
v 0.166016 11.640137 -0.729980
v 0.140625 12.979980 -0.644042
v 0.629395 11.640137 -0.405273
v 0.557617 13.169922 -0.352050
v 0.729980 11.640137 0.166016
v 0.644043 13.169922 0.140626
v 0.405273 11.640137 0.629395
v 0.352051 13.169922 0.557618
v -0.166016 11.640137 0.729981
v -0.140625 13.169922 0.644044
v -0.629395 11.640137 0.405274
v -0.557617 13.169922 0.352051
v -0.729980 11.640137 -0.166015
v -0.644043 13.169922 -0.140624
v -0.405273 11.640137 -0.629394
v -0.352051 12.979980 -0.557617
v 0.166016 11.640137 -0.729980
v 0.140625 12.979980 -0.644042
v -0.124512 11.290039 0.560059
v -0.124512 10.700195 0.560059
v 0.308594 11.290039 0.483887
v 0.308594 10.700195 0.483887
v 0.560059 11.290039 0.124512
v 0.560059 10.700195 0.124512
v 0.483887 11.290039 -0.308593
v 0.483887 10.700195 -0.308593
v 0.124512 11.290039 -0.560058
v 0.124512 10.700195 -0.560058
v -0.308594 11.290039 -0.483886
v -0.308594 10.700195 -0.483886
v -0.560059 11.290039 -0.124511
v -0.560059 10.700195 -0.124511
v -0.483887 11.290039 0.308594
v -0.483887 10.700195 0.308594
v -0.124512 11.290039 0.560059
v -0.124512 10.700195 0.560059
v 0.370605 10.709961 -1.700195
v -0.938965 10.709961 -1.469238
v 0.984863 10.709961 -1.418945
v -1.419922 10.709961 -0.990234
v 1.459473 10.709961 -0.937500
v -1.700195 10.709961 -0.370605
v 1.700195 10.709961 -0.304687
v -1.700195 10.709961 0.304688
v 1.700195 10.709961 0.370606
v -1.459473 10.709961 0.937500
v 1.419922 10.709961 0.990235
v -0.984863 10.709961 1.418946
v 0.938965 10.709961 1.469239
v -0.370605 10.709961 1.700196
v 2.265137 -13.680176 3.548827
v -0.907227 -13.680176 4.107421
v 3.428711 -13.680176 2.397460
v -2.397461 -13.680176 3.428710
v 4.107422 -13.680176 0.907226
v -3.548828 -13.680176 2.265136
v 4.119629 -13.680176 -0.730958
v -4.119629 -13.680176 0.730956
v 3.548828 -13.680176 -2.265137
v -4.107422 -13.680176 -0.907227
v 2.397461 -13.680176 -3.428712
v -3.428711 -13.680176 -2.397462
v 0.907227 -13.680176 -4.107422
v -2.265137 -13.680176 -3.548829
v 0.405273 11.640137 0.629395
v -0.166016 11.640137 0.729981
v 0.729980 11.640137 0.166016
v -0.629395 11.640137 0.405274
v 0.629395 11.640137 -0.405273
v -0.729980 11.640137 -0.166015
v 0.166016 11.640137 -0.729980
v -0.405273 11.640137 -0.629394
v -0.124512 11.290039 0.560059
v 0.308594 11.290039 0.483887
v -0.483887 11.290039 0.308594
v 0.560059 11.290039 0.124512
v -0.560059 11.290039 -0.124511
v 0.483887 11.290039 -0.308593
v -0.308594 11.290039 -0.483886
v 0.124512 11.290039 -0.560058
v 0.044922 11.270020 0.255860
v 0.044922 11.680176 0.255860
v -0.194336 11.270020 0.166016
v -0.194336 11.680176 0.166016
v -0.239258 11.270020 -0.089843
v -0.239258 11.680176 -0.089843
v -0.044922 11.270020 -0.255859
v -0.044922 11.680176 -0.255859
v 0.044922 11.680176 0.255860
v 0.044922 11.270020 0.255860
v 0.239258 11.680176 0.089844
v 0.239258 11.270020 0.089844
v 0.194336 11.680176 -0.166015
v 0.194336 11.270020 -0.166015
v -0.044922 11.680176 -0.255859
v -0.044922 11.270020 -0.255859
v -0.644043 13.169922 -0.140624
v -0.557617 13.169922 0.352051
v -0.352051 12.979980 -0.557617
v -0.140625 13.169922 0.644044
v 0.140625 12.979980 -0.644042
v 0.352051 13.169922 0.557618
v 0.557617 13.169922 -0.352050
v 0.644043 13.169922 0.140626
v 0.305664 10.709961 1.705567
v 0.938965 10.709961 1.469239
v -0.370605 10.709961 1.700196
v -0.305664 10.709961 -1.705566
v -0.938965 10.709961 -1.469238
v 0.370605 10.709961 -1.700195
v -0.730957 -13.680176 -4.119629
v 0.907227 -13.680176 -4.107422
v -2.265137 -13.680176 -3.548829
v 0.730957 -13.680176 4.119628
v -0.907227 -13.680176 4.107421
v 2.265137 -13.680176 3.548827
vt 0.267090 0.186279
vt 0.337402 0.186279
vt 0.366699 0.196533
vt 0.237793 0.196289
vt 0.387207 0.211182
vt 0.217285 0.210938
vt 0.393555 0.228516
vt 0.210938 0.228027
vt 0.386719 0.245605
vt 0.216797 0.245361
vt 0.366211 0.260254
vt 0.237305 0.260010
vt 0.336914 0.270264
vt 0.266602 0.270264
vt 0.666504 0.894043
vt 0.666504 0.897949
vt 0.643066 0.897949
vt 0.643066 0.894043
vt 0.596191 0.897949
vt 0.596191 0.894043
vt 0.572754 0.897949
vt 0.572754 0.894043
vt 0.533203 0.823486
vt 0.533203 0.819580
vt 0.533203 0.819580
vt 0.533203 0.823486
vt 0.509766 0.819580
vt 0.509766 0.823486
vt 0.509766 0.819580
vt 0.509766 0.823486
vt 0.301758 0.273438
vt 0.266602 0.270264
vt 0.336914 0.270264
vt 0.302246 0.183105
vt 0.337402 0.186279
vt 0.267090 0.186279
vt 0.443359 0.351074
vt 0.443359 0.362793
vt 0.439453 0.360840
vt 0.439453 0.349121
vt 0.423340 0.358887
vt 0.423340 0.347168
vt 0.407715 0.356934
vt 0.407715 0.345215
vt 0.388184 0.356934
vt 0.388184 0.345215
vt 0.368652 0.356934
vt 0.368652 0.345215
vt 0.349121 0.358887
vt 0.349121 0.347168
vt 0.329590 0.360840
vt 0.329590 0.349121
vt 0.329590 0.362793
vt 0.329590 0.351074
vt 0.329590 0.364746
vt 0.329590 0.353027
vt 0.349121 0.364746
vt 0.349121 0.353027
vt 0.368652 0.364746
vt 0.368652 0.353027
vt 0.388184 0.364746
vt 0.388184 0.353027
vt 0.407715 0.364746
vt 0.407715 0.353027
vt 0.427246 0.364746
vt 0.427246 0.353027
vt 0.447266 0.364746
vt 0.447266 0.353027
vt 0.443359 0.362793
vt 0.443359 0.351074
vt 0.704102 0.299805
vt 0.704102 0.309082
vt 0.678223 0.306641
vt 0.685059 0.297852
vt 0.656738 0.298828
vt 0.668945 0.292236
vt 0.642090 0.287354
vt 0.658203 0.283691
vt 0.637207 0.273682
vt 0.654785 0.273682
vt 0.642090 0.260254
vt 0.658203 0.263672
vt 0.656738 0.248779
vt 0.669434 0.255127
vt 0.678223 0.240967
vt 0.685059 0.249512
vt 0.704102 0.238525
vt 0.704102 0.247559
vt 0.729980 0.240967
vt 0.723145 0.249512
vt 0.751465 0.248779
vt 0.739258 0.255371
vt 0.766113 0.260254
vt 0.750000 0.263672
vt 0.770996 0.273682
vt 0.753418 0.273926
vt 0.766113 0.287354
vt 0.750000 0.283936
vt 0.751465 0.298828
vt 0.738770 0.292236
vt 0.729980 0.306641
vt 0.723145 0.298096
vt 0.704102 0.309082
vt 0.704102 0.299805
vt 0.466797 0.362793
vt 0.466797 0.351074
vt 0.462891 0.349121
vt 0.462891 0.360840
vt 0.439453 0.347168
vt 0.439453 0.358887
vt 0.415527 0.345215
vt 0.415527 0.356934
vt 0.388184 0.345215
vt 0.388184 0.356934
vt 0.360840 0.345215
vt 0.360840 0.356934
vt 0.337402 0.347168
vt 0.337402 0.358887
vt 0.313965 0.349121
vt 0.313965 0.360840
vt 0.309570 0.351074
vt 0.309570 0.362793
vt 0.305664 0.353027
vt 0.305664 0.364746
vt 0.329590 0.354980
vt 0.329590 0.366699
vt 0.353027 0.356934
vt 0.353027 0.368652
vt 0.388184 0.356934
vt 0.388184 0.368652
vt 0.423340 0.356934
vt 0.423340 0.368652
vt 0.447266 0.354980
vt 0.447266 0.366699
vt 0.470703 0.353027
vt 0.470703 0.364746
vt 0.466797 0.351074
vt 0.466797 0.362793
vt 0.619629 0.390137
vt 0.627441 0.407959
vt 0.627441 0.403809
vt 0.619629 0.388184
vt 0.584473 0.401855
vt 0.576660 0.386230
vt 0.541016 0.399902
vt 0.533203 0.384277
vt 0.478516 0.399902
vt 0.478516 0.384277
vt 0.415527 0.399902
vt 0.423340 0.384277
vt 0.372559 0.401855
vt 0.380371 0.386230
vt 0.329590 0.403809
vt 0.337402 0.388184
vt 0.329590 0.407959
vt 0.337402 0.390137
vt 0.329590 0.411865
vt 0.337402 0.392090
vt 0.368652 0.413818
vt 0.376465 0.394043
vt 0.407715 0.415771
vt 0.415527 0.395996
vt 0.478516 0.415771
vt 0.478516 0.395996
vt 0.548828 0.415771
vt 0.541016 0.395996
vt 0.588379 0.413818
vt 0.580566 0.394043
vt 0.627441 0.411865
vt 0.619629 0.392090
vt 0.627441 0.407959
vt 0.619629 0.390137
vt 0.627441 0.407959
vt 0.627441 0.395996
vt 0.627441 0.392090
vt 0.627441 0.403809
vt 0.584473 0.390137
vt 0.584473 0.401855
vt 0.541016 0.388184
vt 0.541016 0.399902
vt 0.478516 0.388184
vt 0.478516 0.399902
vt 0.415527 0.388184
vt 0.415527 0.399902
vt 0.372559 0.390137
vt 0.372559 0.401855
vt 0.329590 0.392090
vt 0.329590 0.403809
vt 0.329590 0.395996
vt 0.329590 0.407959
vt 0.329590 0.399902
vt 0.329590 0.411865
vt 0.368652 0.401855
vt 0.368652 0.413818
vt 0.407715 0.403809
vt 0.407715 0.415771
vt 0.478516 0.403809
vt 0.478516 0.415771
vt 0.548828 0.403809
vt 0.548828 0.415771
vt 0.588379 0.401855
vt 0.588379 0.413818
vt 0.627441 0.399902
vt 0.627441 0.411865
vt 0.627441 0.395996
vt 0.627441 0.407959
vt 0.000000 0.834961
vt 0.000488 0.818115
vt 0.062988 0.818115
vt 0.062500 0.834961
vt 0.125488 0.818115
vt 0.125000 0.834961
vt 0.187988 0.818115
vt 0.187500 0.834961
vt 0.250488 0.818115
vt 0.250000 0.834961
vt 0.312988 0.818115
vt 0.312500 0.834961
vt 0.375488 0.818115
vt 0.375000 0.834961
vt 0.437988 0.818115
vt 0.437500 0.834961
vt 0.500488 0.818115
vt 0.500000 0.834961
vt 0.562988 0.818115
vt 0.562500 0.834961
vt 0.625488 0.818115
vt 0.625000 0.834961
vt 0.687988 0.818115
vt 0.687500 0.834961
vt 0.750488 0.818115
vt 0.750000 0.834961
vt 0.812988 0.818115
vt 0.812500 0.834961
vt 0.875488 0.818115
vt 0.875000 0.834961
vt 0.937988 0.818115
vt 0.937500 0.834961
vt 1.000488 0.818115
vt 1.000000 0.834961
vt 1.000000 0.434814
vt 1.000488 0.452637
vt 0.937988 0.452637
vt 0.937500 0.434814
vt 0.875488 0.452637
vt 0.875000 0.434814
vt 0.812988 0.452637
vt 0.812500 0.434814
vt 0.750488 0.452637
vt 0.750000 0.434814
vt 0.687988 0.452637
vt 0.687500 0.434814
vt 0.625488 0.452637
vt 0.625000 0.434814
vt 0.562988 0.452637
vt 0.562500 0.434814
vt 0.500488 0.452637
vt 0.500000 0.434814
vt 0.437988 0.452637
vt 0.437500 0.434814
vt 0.375488 0.452637
vt 0.375000 0.434814
vt 0.312988 0.452637
vt 0.312500 0.434814
vt 0.250488 0.452637
vt 0.250000 0.434814
vt 0.187988 0.452637
vt 0.187500 0.434814
vt 0.125488 0.452637
vt 0.125000 0.434814
vt 0.062988 0.452637
vt 0.062500 0.434814
vt 0.000488 0.452637
vt 0.000000 0.434814
vt 0.399902 0.967041
vt 0.435059 0.943115
vt 0.431152 0.943115
vt 0.399902 0.967041
vt 0.380371 0.943115
vt 0.360840 0.967041
vt 0.329590 0.943115
vt 0.321777 0.967041
vt 0.262695 0.943115
vt 0.266602 0.967041
vt 0.196289 0.943115
vt 0.211914 0.967041
vt 0.148926 0.943115
vt 0.172363 0.967041
vt 0.102051 0.943115
vt 0.133301 0.967041
vt 0.094238 0.943115
vt 0.133301 0.967041
vt 0.086426 0.943115
vt 0.133301 0.967041
vt 0.141113 0.943115
vt 0.168457 0.967041
vt 0.196289 0.943115
vt 0.204102 0.967041
vt 0.266602 0.943115
vt 0.266602 0.967041
vt 0.337402 0.943115
vt 0.329590 0.967041
vt 0.388184 0.943115
vt 0.364746 0.967041
vt 0.439453 0.943115
vt 0.399902 0.967041
vt 0.435059 0.943115
vt 0.399902 0.967041
vt 0.458984 0.900879
vt 0.501953 0.866943
vt 0.494141 0.866943
vt 0.455078 0.900879
vt 0.423340 0.866943
vt 0.395996 0.900879
vt 0.353027 0.866943
vt 0.337402 0.900879
vt 0.262695 0.866943
vt 0.266602 0.900879
vt 0.172363 0.866943
vt 0.196289 0.900879
vt 0.105957 0.866943
vt 0.137207 0.900879
vt 0.039062 0.866943
vt 0.078613 0.900879
vt 0.027344 0.866943
vt 0.070801 0.900879
vt 0.015625 0.866943
vt 0.062988 0.900879
vt 0.086426 0.866943
vt 0.121582 0.900879
vt 0.156738 0.866943
vt 0.180176 0.900879
vt 0.266602 0.866943
vt 0.266602 0.900879
vt 0.376465 0.866943
vt 0.353027 0.900879
vt 0.443359 0.866943
vt 0.407715 0.900879
vt 0.509766 0.866943
vt 0.462891 0.900879
vt 0.501953 0.866943
vt 0.458984 0.900879
vt 0.399902 0.817627
vt 0.399902 0.823486
vt 0.407715 0.825439
vt 0.407715 0.819580
vt 0.470703 0.825439
vt 0.470703 0.819580
vt 0.533203 0.825439
vt 0.533203 0.819580
vt 0.611816 0.825439
vt 0.611816 0.819580
vt 0.690430 0.825439
vt 0.690430 0.819580
vt 0.752930 0.825439
vt 0.752930 0.819580
vt 0.815918 0.825439
vt 0.815918 0.819580
vt 0.819824 0.823486
vt 0.819824 0.817627
vt 0.823730 0.821533
vt 0.823730 0.815674
vt 0.760742 0.821533
vt 0.760742 0.815674
vt 0.698242 0.821533
vt 0.698242 0.815674
vt 0.607910 0.821533
vt 0.607910 0.815674
vt 0.517578 0.821533
vt 0.517578 0.815674
vt 0.455078 0.821533
vt 0.455078 0.815674
vt 0.392090 0.821533
vt 0.392090 0.815674
vt 0.399902 0.823486
vt 0.399902 0.817627
vt 1.000488 0.452637
vt 1.000488 0.818115
vt 0.937988 0.818115
vt 0.937988 0.452637
vt 0.875488 0.818115
vt 0.875488 0.452637
vt 0.812988 0.818115
vt 0.812988 0.452637
vt 0.750488 0.818115
vt 0.750488 0.452637
vt 0.687988 0.818115
vt 0.687988 0.452637
vt 0.625488 0.818115
vt 0.625488 0.452637
vt 0.562988 0.818115
vt 0.562988 0.452637
vt 0.500488 0.818115
vt 0.500488 0.452637
vt 0.437988 0.818115
vt 0.437988 0.452637
vt 0.375488 0.818115
vt 0.375488 0.452637
vt 0.312988 0.818115
vt 0.312988 0.452637
vt 0.250488 0.818115
vt 0.250488 0.452637
vt 0.187988 0.818115
vt 0.187988 0.452637
vt 0.125488 0.818115
vt 0.125488 0.452637
vt 0.062988 0.818115
vt 0.062988 0.452637
vt 0.000488 0.818115
vt 0.000488 0.452637
vt 0.819824 0.829346
vt 0.819824 0.823486
vt 0.815918 0.825439
vt 0.815918 0.831299
vt 0.752930 0.825439
vt 0.752930 0.831299
vt 0.690430 0.825439
vt 0.690430 0.831299
vt 0.611816 0.825439
vt 0.611816 0.831299
vt 0.533203 0.825439
vt 0.533203 0.831299
vt 0.470703 0.825439
vt 0.470703 0.831299
vt 0.407715 0.825439
vt 0.407715 0.831299
vt 0.399902 0.823486
vt 0.399902 0.829346
vt 0.392090 0.821533
vt 0.392090 0.827393
vt 0.455078 0.821533
vt 0.455078 0.827393
vt 0.517578 0.821533
vt 0.517578 0.827393
vt 0.607910 0.821533
vt 0.607910 0.827393
vt 0.698242 0.821533
vt 0.698242 0.827393
vt 0.760742 0.821533
vt 0.760742 0.827393
vt 0.823730 0.821533
vt 0.823730 0.827393
vt 0.819824 0.823486
vt 0.819824 0.829346
vt 0.435059 0.943115
vt 0.458984 0.900879
vt 0.455078 0.900879
vt 0.431152 0.943115
vt 0.395996 0.900879
vt 0.380371 0.943115
vt 0.337402 0.900879
vt 0.329590 0.943115
vt 0.266602 0.900879
vt 0.262695 0.943115
vt 0.196289 0.900879
vt 0.196289 0.943115
vt 0.137207 0.900879
vt 0.148926 0.943115
vt 0.078613 0.900879
vt 0.102051 0.943115
vt 0.070801 0.900879
vt 0.094238 0.943115
vt 0.062988 0.900879
vt 0.086426 0.943115
vt 0.121582 0.900879
vt 0.141113 0.943115
vt 0.180176 0.900879
vt 0.196289 0.943115
vt 0.266602 0.900879
vt 0.266602 0.943115
vt 0.353027 0.900879
vt 0.337402 0.943115
vt 0.407715 0.900879
vt 0.388184 0.943115
vt 0.462891 0.900879
vt 0.439453 0.943115
vt 0.458984 0.900879
vt 0.435059 0.943115
vt 0.604004 0.909912
vt 0.604004 0.941162
vt 0.619629 0.941162
vt 0.619629 0.909912
vt 0.635254 0.941162
vt 0.635254 0.909912
vt 0.650879 0.941162
vt 0.650879 0.909912
vt 0.650879 0.941162
vt 0.650879 0.913818
vt 0.635254 0.945068
vt 0.635254 0.913818
vt 0.619629 0.945068
vt 0.619629 0.913818
vt 0.604004 0.941162
vt 0.604004 0.913818
vt 0.604004 0.941162
vt 0.604004 0.909912
vt 0.533203 0.823486
vt 0.533203 0.811768
vt 0.533203 0.811768
vt 0.533203 0.819580
vt 0.533203 0.811768
vt 0.533203 0.819580
vt 0.509766 0.811768
vt 0.509766 0.819580
vt 0.509766 0.811768
vt 0.509766 0.819580
vt 0.509766 0.811768
vt 0.509766 0.823486
vt 0.509766 0.811768
vt 0.509766 0.823486
vt 0.533203 0.811768
vt 0.533203 0.823486
vt 0.533203 0.811768
vt 0.533203 0.823486
vt 0.658203 0.332520
vt 0.750000 0.332520
vt 0.788574 0.318604
vt 0.619629 0.318604
vt 0.815430 0.298096
vt 0.592773 0.298096
vt 0.823730 0.273926
vt 0.584473 0.273682
vt 0.815430 0.249512
vt 0.592773 0.249268
vt 0.789062 0.229004
vt 0.619629 0.229004
vt 0.750488 0.214844
vt 0.658203 0.214844
vt 0.533203 0.819580
vt 0.533203 0.831299
vt 0.525391 0.831299
vt 0.525391 0.823486
vt 0.517578 0.831299
vt 0.517578 0.823486
vt 0.509766 0.831299
vt 0.509766 0.819580
vt 0.533203 0.831299
vt 0.533203 0.819580
vt 0.525391 0.819580
vt 0.525391 0.831299
vt 0.517578 0.819580
vt 0.517578 0.831299
vt 0.509766 0.819580
vt 0.509766 0.831299
vt 0.706055 0.917725
vt 0.721680 0.917725
vt 0.729492 0.925537
vt 0.690430 0.925537
vt 0.729492 0.937256
vt 0.690430 0.937256
vt 0.721680 0.941162
vt 0.706055 0.941162
vt 0.704102 0.210449
vt 0.658203 0.214844
vt 0.750488 0.214844
vt 0.704102 0.337158
vt 0.750000 0.332520
vt 0.658203 0.332520
vn 0.0000 1.0000 0.0000
vn 0.0000 -1.0000 0.0000
vn -0.3525 -0.0142 -0.9357
vn -0.5409 -0.0132 -0.8410
vn -0.5392 -0.0132 -0.8420
vn -0.8209 -0.0074 -0.5709
vn -0.8200 -0.0075 -0.5723
vn -0.9773 -0.0015 -0.2119
vn -0.9835 0.0000 0.1807
vn -0.8414 0.0000 0.5404
vn -0.5737 0.0000 0.8191
vn -0.2150 -0.0026 0.9766
vn 0.1772 -0.0098 0.9841
vn 0.5409 -0.0132 0.8410
vn 0.5392 -0.0132 0.8420
vn 0.8209 -0.0074 0.5709
vn 0.8200 -0.0075 0.5723
vn 0.9773 -0.0015 0.2119
vn 0.9835 0.0000 -0.1807
vn 0.8414 0.0000 -0.5404
vn 0.5737 0.0000 -0.8191
vn 0.2150 -0.0026 -0.9766
vn 0.0040 -0.0050 -1.0000
vn 0.0060 0.9998 0.0160
vn 0.0090 0.9998 0.0141
vn 0.0138 0.9998 0.0097
vn 0.0138 0.9998 0.0096
vn 0.0164 0.9998 0.0036
vn 0.0166 0.9998 -0.0029
vn 0.0166 0.9998 -0.0030
vn 0.0141 0.9998 -0.0090
vn 0.0097 0.9998 -0.0138
vn 0.0096 0.9998 -0.0138
vn 0.0036 0.9998 -0.0164
vn -0.0029 0.9998 -0.0166
vn -0.0030 0.9998 -0.0166
vn -0.0090 0.9998 -0.0141
vn -0.0138 0.9998 -0.0097
vn -0.0138 0.9998 -0.0096
vn -0.0164 0.9998 -0.0036
vn -0.0166 0.9998 0.0029
vn -0.0166 0.9998 0.0030
vn -0.0141 0.9998 0.0090
vn -0.0097 0.9998 0.0138
vn -0.0096 0.9998 0.0138
vn -0.0036 0.9998 0.0164
vn -0.0001 0.9998 0.0172
vn 0.3485 0.0000 0.9373
vn 0.5369 0.0000 0.8437
vn 0.8190 0.0000 0.5738
vn 0.9763 0.0000 0.2162
vn 0.9848 0.0000 -0.1737
vn 0.8437 0.0000 -0.5369
vn 0.5738 0.0000 -0.8190
vn 0.2162 0.0000 -0.9763
vn -0.1737 0.0000 -0.9848
vn -0.5369 0.0000 -0.8437
vn -0.8190 0.0000 -0.5738
vn -0.9763 0.0000 -0.2162
vn -0.9848 0.0000 0.1737
vn -0.8437 0.0000 0.5369
vn -0.5738 0.0000 0.8190
vn -0.2162 0.0000 0.9763
vn -0.0069 0.0000 1.0000
vn -0.3245 0.3661 -0.8722
vn -0.4991 0.3733 -0.7820
vn -0.4992 0.3733 -0.7819
vn -0.7615 0.3715 -0.5311
vn -0.7616 0.3715 -0.5310
vn -0.9059 0.3733 -0.2000
vn -0.9059 0.3733 -0.1999
vn -0.9143 0.3714 0.1611
vn -0.7820 0.3733 0.4991
vn -0.7819 0.3733 0.4992
vn -0.5311 0.3715 0.7615
vn -0.5310 0.3715 0.7616
vn -0.2000 0.3733 0.9059
vn -0.1999 0.3733 0.9059
vn 0.1611 0.3714 0.9143
vn 0.4991 0.3733 0.7820
vn 0.4992 0.3733 0.7819
vn 0.7615 0.3715 0.5311
vn 0.7616 0.3715 0.5310
vn 0.9059 0.3733 0.2000
vn 0.9059 0.3733 0.1999
vn 0.9143 0.3714 -0.1611
vn 0.7820 0.3733 -0.4991
vn 0.7819 0.3733 -0.4992
vn 0.5311 0.3715 -0.7615
vn 0.5310 0.3715 -0.7616
vn 0.2000 0.3733 -0.9059
vn 0.1999 0.3733 -0.9059
vn 0.0069 0.3663 -0.9305
vn 0.3487 0.0000 0.9372
vn 0.5379 0.0000 0.8430
vn 0.8202 0.0000 0.5721
vn 0.9765 0.0000 0.2155
vn 0.9848 0.0000 -0.1736
vn 0.8430 0.0000 -0.5379
vn 0.5721 0.0000 -0.8202
vn 0.2155 0.0000 -0.9765
vn -0.1736 0.0000 -0.9848
vn -0.5379 0.0000 -0.8430
vn -0.8202 0.0000 -0.5721
vn -0.9765 0.0000 -0.2155
vn -0.9848 0.0000 0.1736
vn -0.8430 0.0000 0.5379
vn -0.5721 0.0000 0.8202
vn -0.2155 0.0000 0.9765
vn -0.0073 0.0000 1.0000
vn 0.3018 0.5063 0.8078
vn 0.4622 0.5148 0.7220
vn 0.4612 0.5148 0.7227
vn 0.7041 0.5134 0.4905
vn 0.7034 0.5134 0.4915
vn 0.8363 0.5166 0.1835
vn 0.8360 0.5166 0.1847
vn 0.8447 0.5136 -0.1505
vn 0.8449 0.5136 -0.1496
vn 0.7220 0.5148 -0.4622
vn 0.7227 0.5148 -0.4612
vn 0.4905 0.5134 -0.7041
vn 0.4915 0.5134 -0.7034
vn 0.1835 0.5166 -0.8363
vn 0.1847 0.5166 -0.8360
vn -0.1505 0.5136 -0.8447
vn -0.1496 0.5136 -0.8449
vn -0.4622 0.5148 -0.7220
vn -0.4612 0.5148 -0.7227
vn -0.7041 0.5134 -0.4905
vn -0.7034 0.5134 -0.4915
vn -0.8363 0.5166 -0.1835
vn -0.8360 0.5166 -0.1847
vn -0.8447 0.5136 0.1505
vn -0.8449 0.5136 0.1496
vn -0.7220 0.5148 0.4622
vn -0.7227 0.5148 0.4612
vn -0.4905 0.5134 0.7041
vn -0.4915 0.5134 0.7034
vn -0.1835 0.5166 0.8363
vn -0.1847 0.5166 0.8360
vn -0.0052 0.5083 0.8611
vn -0.0053 -0.4879 0.8729
vn -0.1861 -0.4961 0.8480
vn -0.1872 -0.4961 0.8478
vn -0.4973 -0.4930 0.7139
vn -0.4983 -0.4930 0.7132
vn -0.7321 -0.4943 0.4687
vn -0.7328 -0.4943 0.4676
vn -0.8565 -0.4931 0.1526
vn -0.8566 -0.4931 0.1517
vn -0.8480 -0.4961 -0.1861
vn -0.8478 -0.4961 -0.1872
vn -0.7139 -0.4930 -0.4973
vn -0.7132 -0.4930 -0.4983
vn -0.4687 -0.4943 -0.7321
vn -0.4676 -0.4943 -0.7328
vn -0.1526 -0.4931 -0.8565
vn -0.1517 -0.4931 -0.8566
vn 0.1861 -0.4961 -0.8480
vn 0.1872 -0.4961 -0.8478
vn 0.4973 -0.4930 -0.7139
vn 0.4983 -0.4930 -0.7132
vn 0.7321 -0.4943 -0.4687
vn 0.7328 -0.4943 -0.4676
vn 0.8565 -0.4931 -0.1526
vn 0.8566 -0.4931 -0.1517
vn 0.8480 -0.4961 0.1861
vn 0.8478 -0.4961 0.1872
vn 0.7139 -0.4930 0.4973
vn 0.7132 -0.4930 0.4983
vn 0.4687 -0.4943 0.7321
vn 0.4676 -0.4943 0.7328
vn 0.3059 -0.4859 0.8187
vn 0.2612 0.6626 0.7019
vn 0.3984 0.6705 0.6259
vn 0.3987 0.6705 0.6257
vn 0.6095 0.6679 0.4270
vn 0.7244 0.6704 0.1605
vn 0.7243 0.6704 0.1609
vn 0.7322 0.6688 -0.1290
vn 0.7322 0.6688 -0.1291
vn 0.6259 0.6705 -0.3984
vn 0.6257 0.6705 -0.3987
vn 0.4270 0.6679 -0.6095
vn 0.1605 0.6704 -0.7244
vn 0.1609 0.6704 -0.7243
vn -0.1290 0.6688 -0.7322
vn -0.1291 0.6688 -0.7322
vn -0.3984 0.6705 -0.6259
vn -0.3987 0.6705 -0.6257
vn -0.6095 0.6679 -0.4270
vn -0.7244 0.6704 -0.1605
vn -0.7243 0.6704 -0.1609
vn -0.7322 0.6688 0.1290
vn -0.7322 0.6688 0.1291
vn -0.6259 0.6705 0.3984
vn -0.6257 0.6705 0.3987
vn -0.4270 0.6679 0.6095
vn -0.1605 0.6704 0.7244
vn -0.1609 0.6704 0.7243
vn -0.0055 0.6626 0.7490
vn 0.2779 0.6093 0.7426
vn 0.4232 0.6180 0.6625
vn 0.4235 0.6180 0.6623
vn 0.6463 0.6149 0.4518
vn 0.6467 0.6149 0.4513
vn 0.7694 0.6157 0.1699
vn 0.7696 0.6157 0.1693
vn 0.7768 0.6144 -0.1380
vn 0.7768 0.6144 -0.1382
vn 0.6625 0.6180 -0.4232
vn 0.6623 0.6180 -0.4235
vn 0.4518 0.6149 -0.6463
vn 0.4513 0.6149 -0.6467
vn 0.1699 0.6157 -0.7694
vn 0.1693 0.6157 -0.7696
vn -0.1380 0.6144 -0.7768
vn -0.1382 0.6144 -0.7768
vn -0.4232 0.6180 -0.6625
vn -0.4235 0.6180 -0.6623
vn -0.6463 0.6149 -0.4518
vn -0.6467 0.6149 -0.4513
vn -0.7694 0.6157 -0.1699
vn -0.7696 0.6157 -0.1693
vn -0.7768 0.6144 0.1380
vn -0.7768 0.6144 0.1382
vn -0.6625 0.6180 0.4232
vn -0.6623 0.6180 0.4235
vn -0.4518 0.6149 0.6463
vn -0.4513 0.6149 0.6467
vn -0.1699 0.6157 0.7694
vn -0.1693 0.6157 0.7696
vn -0.0048 0.6068 0.7948
vn 0.0047 -0.7644 -0.6447
vn 0.1371 -0.7715 -0.6213
vn 0.1372 -0.7715 -0.6212
vn 0.3652 -0.7699 -0.5234
vn 0.3650 -0.7699 -0.5235
vn 0.5361 -0.7716 -0.3422
vn 0.5362 -0.7716 -0.3421
vn 0.6288 -0.7696 -0.1109
vn 0.6288 -0.7696 -0.1108
vn 0.6213 -0.7715 0.1371
vn 0.6212 -0.7715 0.1372
vn 0.5234 -0.7699 0.3652
vn 0.5235 -0.7699 0.3650
vn 0.3422 -0.7716 0.5361
vn 0.3421 -0.7716 0.5362
vn 0.1109 -0.7696 0.6288
vn 0.1108 -0.7696 0.6288
vn -0.1371 -0.7715 0.6213
vn -0.1372 -0.7715 0.6212
vn -0.3652 -0.7699 0.5234
vn -0.3650 -0.7699 0.5235
vn -0.5361 -0.7716 0.3422
vn -0.5362 -0.7716 0.3421
vn -0.6288 -0.7696 0.1109
vn -0.6288 -0.7696 0.1108
vn -0.6213 -0.7715 -0.1371
vn -0.6212 -0.7715 -0.1372
vn -0.5234 -0.7699 -0.3652
vn -0.5235 -0.7699 -0.3650
vn -0.3422 -0.7716 -0.5361
vn -0.3421 -0.7716 -0.5362
vn -0.2248 -0.7643 -0.6043
vn -0.0050 0.0000 1.0000
vn -0.2145 0.0000 0.9767
vn -0.5721 0.0000 0.8201
vn -0.8422 0.0000 0.5390
vn -0.9844 0.0000 0.1759
vn -0.9767 0.0000 -0.2145
vn -0.8201 0.0000 -0.5721
vn -0.5390 0.0000 -0.8422
vn -0.1759 0.0000 -0.9844
vn 0.2145 0.0000 -0.9767
vn 0.5721 0.0000 -0.8201
vn 0.8422 0.0000 -0.5390
vn 0.9844 0.0000 -0.1759
vn 0.9767 0.0000 0.2145
vn 0.8201 0.0000 0.5721
vn 0.5390 0.0000 0.8422
vn 0.3511 0.0000 0.9363
vn 0.3315 0.3275 0.8847
vn 0.5078 0.3340 0.7940
vn 0.5068 0.3340 0.7947
vn 0.7726 0.3333 0.5403
vn 0.7718 0.3333 0.5415
vn 0.9197 0.3363 0.2027
vn 0.9194 0.3363 0.2040
vn 0.9280 0.3335 -0.1658
vn 0.9282 0.3335 -0.1650
vn 0.7940 0.3340 -0.5078
vn 0.7947 0.3340 -0.5068
vn 0.5403 0.3333 -0.7726
vn 0.5415 0.3333 -0.7718
vn 0.2027 0.3363 -0.9197
vn 0.2040 0.3363 -0.9194
vn -0.1658 0.3335 -0.9280
vn -0.1650 0.3335 -0.9282
vn -0.5078 0.3340 -0.7940
vn -0.5068 0.3340 -0.7947
vn -0.7726 0.3333 -0.5403
vn -0.7718 0.3333 -0.5415
vn -0.9197 0.3363 -0.2027
vn -0.9194 0.3363 -0.2040
vn -0.9280 0.3335 0.1658
vn -0.9282 0.3335 0.1650
vn -0.7940 0.3340 0.5078
vn -0.7947 0.3340 0.5068
vn -0.5403 0.3333 0.7726
vn -0.5415 0.3333 0.7718
vn -0.2027 0.3363 0.9197
vn -0.2040 0.3363 0.9194
vn -0.0054 0.3297 0.9441
vn 0.5641 0.0590 -0.8235
vn 0.8673 0.0598 -0.4942
vn 0.8387 0.0604 -0.5412
vn 0.9748 0.0582 0.2154
vn 0.9743 0.0582 0.2174
vn 0.5352 0.0582 0.8427
vn 0.5369 0.0583 0.8416
vn -0.2154 0.0582 0.9748
vn -0.2174 0.0582 0.9743
vn -0.8427 0.0582 0.5352
vn -0.8416 0.0583 0.5369
vn -0.9839 0.0598 -0.1686
vn -0.9731 0.0603 -0.2224
vn -0.5648 0.0640 -0.8227
vn -0.5325 0.0641 -0.8440
vn -0.1728 0.0596 -0.9831
vn 0.1732 0.0000 0.9849
vn 0.5372 0.0000 0.8434
vn 0.9763 0.0000 0.2165
vn 0.8434 0.0000 -0.5372
vn 0.2165 0.0000 -0.9763
vn -0.5372 0.0000 -0.8434
vn -0.9763 0.0000 -0.2165
vn -0.8434 0.0000 0.5372
vn -0.5733 0.0000 0.8193
vn -0.3515 0.0000 0.9362
vn -0.7695 0.0000 0.6386
vn -0.9411 0.0000 -0.3382
vn -0.6495 0.0000 -0.7603
vn 0.6495 0.0000 0.7603
vn 0.9411 0.0000 0.3382
vn 0.7695 0.0000 -0.6386
vn 0.3515 0.0000 -0.9362
vn 0.2314 0.9615 -0.1484
vn 0.0607 0.9865 -0.1516
vn 0.0597 0.9866 -0.1516
vn -0.1087 0.9866 -0.1218
vn -0.1078 0.9866 -0.1222
vn -0.2683 0.9614 -0.0606
usemtl I23V
s off
f 479/1/1 480/2/1 482/3/1 481/4/1
f 481/4/1 482/3/1 484/5/1 483/6/1
f 483/6/1 484/5/1 486/7/1 485/8/1
f 485/8/1 486/7/1 488/9/1 487/10/1
f 487/10/1 488/9/1 490/11/1 489/12/1
f 489/12/1 490/11/1 492/13/1 491/14/1
f 507/15/2 508/16/2 510/17/2 509/18/2
f 509/18/2 510/17/2 512/19/2 511/20/2
f 511/20/2 512/19/2 514/21/2 513/22/2
f 515/23/1 516/24/1 518/25/1 517/26/1
f 517/26/1 518/25/1 520/27/1 519/28/1
f 519/28/1 520/27/1 522/29/1 521/30/1
f 547/31/1 548/32/1 549/33/1
f 550/34/1 551/35/1 552/36/1
s 1
f 1/37/3 2/38/3 4/39/4 3/40/5
f 3/40/5 4/39/4 6/41/6 5/42/7
f 5/42/7 6/41/6 8/43/8 7/44/8
f 7/44/8 8/43/8 10/45/9 9/46/9
f 9/46/9 10/45/9 12/47/10 11/48/10
f 11/48/10 12/47/10 14/49/11 13/50/11
f 13/50/11 14/49/11 16/51/12 15/52/12
f 15/52/12 16/51/12 18/53/13 17/54/13
f 17/54/13 18/53/13 20/55/14 19/56/15
f 19/56/15 20/55/14 22/57/16 21/58/17
f 21/58/17 22/57/16 24/59/18 23/60/18
f 23/60/18 24/59/18 26/61/19 25/62/19
f 25/62/19 26/61/19 28/63/20 27/64/20
f 27/64/20 28/63/20 30/65/21 29/66/21
f 29/66/21 30/65/21 32/67/22 31/68/22
f 31/68/22 32/67/22 34/69/23 33/70/23
f 35/71/24 36/72/24 38/73/25 37/74/25
f 37/74/25 38/73/25 40/75/26 39/76/27
f 39/76/27 40/75/26 42/77/28 41/78/28
f 41/78/28 42/77/28 44/79/29 43/80/30
f 43/80/30 44/79/29 46/81/31 45/82/31
f 45/82/31 46/81/31 48/83/32 47/84/33
f 47/84/33 48/83/32 50/85/34 49/86/34
f 49/86/34 50/85/34 52/87/35 51/88/36
f 51/88/36 52/87/35 54/89/37 53/90/37
f 53/90/37 54/89/37 56/91/38 55/92/39
f 55/92/39 56/91/38 58/93/40 57/94/40
f 57/94/40 58/93/40 60/95/41 59/96/42
f 59/96/42 60/95/41 62/97/43 61/98/43
f 61/98/43 62/97/43 64/99/44 63/100/45
f 63/100/45 64/99/44 66/101/46 65/102/46
f 65/102/46 66/101/46 68/103/47 67/104/47
f 69/105/48 70/106/48 72/107/49 71/108/49
f 71/108/49 72/107/49 74/109/50 73/110/50
f 73/110/50 74/109/50 76/111/51 75/112/51
f 75/112/51 76/111/51 78/113/52 77/114/52
f 77/114/52 78/113/52 80/115/53 79/116/53
f 79/116/53 80/115/53 82/117/54 81/118/54
f 81/118/54 82/117/54 84/119/55 83/120/55
f 83/120/55 84/119/55 86/121/56 85/122/56
f 85/122/56 86/121/56 88/123/57 87/124/57
f 87/124/57 88/123/57 90/125/58 89/126/58
f 89/126/58 90/125/58 92/127/59 91/128/59
f 91/128/59 92/127/59 94/129/60 93/130/60
f 93/130/60 94/129/60 96/131/61 95/132/61
f 95/132/61 96/131/61 98/133/62 97/134/62
f 97/134/62 98/133/62 100/135/63 99/136/63
f 99/136/63 100/135/63 102/137/64 101/138/64
f 103/139/65 104/140/65 106/141/66 105/142/67
f 105/142/67 106/141/66 108/143/68 107/144/69
f 107/144/69 108/143/68 110/145/70 109/146/71
f 109/146/71 110/145/70 112/147/72 111/148/72
f 111/148/72 112/147/72 114/149/73 113/150/74
f 113/150/74 114/149/73 116/151/75 115/152/76
f 115/152/76 116/151/75 118/153/77 117/154/78
f 117/154/78 118/153/77 120/155/79 119/156/79
f 119/156/79 120/155/79 122/157/80 121/158/81
f 121/158/81 122/157/80 124/159/82 123/160/83
f 123/160/83 124/159/82 126/161/84 125/162/85
f 125/162/85 126/161/84 128/163/86 127/164/86
f 127/164/86 128/163/86 130/165/87 129/166/88
f 129/166/88 130/165/87 132/167/89 131/168/90
f 131/168/90 132/167/89 134/169/91 133/170/92
f 133/170/92 134/169/91 136/171/93 135/172/93
f 137/173/94 138/174/94 140/175/95 139/176/95
f 139/176/95 140/175/95 142/177/96 141/178/96
f 141/178/96 142/177/96 144/179/97 143/180/97
f 143/180/97 144/179/97 146/181/98 145/182/98
f 145/182/98 146/181/98 148/183/99 147/184/99
f 147/184/99 148/183/99 150/185/100 149/186/100
f 149/186/100 150/185/100 152/187/101 151/188/101
f 151/188/101 152/187/101 154/189/102 153/190/102
f 153/190/102 154/189/102 156/191/103 155/192/103
f 155/192/103 156/191/103 158/193/104 157/194/104
f 157/194/104 158/193/104 160/195/105 159/196/105
f 159/196/105 160/195/105 162/197/106 161/198/106
f 161/198/106 162/197/106 164/199/107 163/200/107
f 163/200/107 164/199/107 166/201/108 165/202/108
f 165/202/108 166/201/108 168/203/109 167/204/109
f 167/204/109 168/203/109 170/205/110 169/206/110
f 171/207/111 172/208/111 174/209/112 173/210/113
f 173/210/113 174/209/112 176/211/114 175/212/115
f 175/212/115 176/211/114 178/213/116 177/214/117
f 177/214/117 178/213/116 180/215/118 179/216/119
f 179/216/119 180/215/118 182/217/120 181/218/121
f 181/218/121 182/217/120 184/219/122 183/220/123
f 183/220/123 184/219/122 186/221/124 185/222/125
f 185/222/125 186/221/124 188/223/126 187/224/127
f 187/224/127 188/223/126 190/225/128 189/226/129
f 189/226/129 190/225/128 192/227/130 191/228/131
f 191/228/131 192/227/130 194/229/132 193/230/133
f 193/230/133 194/229/132 196/231/134 195/232/135
f 195/232/135 196/231/134 198/233/136 197/234/137
f 197/234/137 198/233/136 200/235/138 199/236/139
f 199/236/139 200/235/138 202/237/140 201/238/141
f 201/238/141 202/237/140 204/239/142 203/240/142
f 205/241/143 206/242/143 208/243/144 207/244/145
f 207/244/145 208/243/144 210/245/146 209/246/147
f 209/246/147 210/245/146 212/247/148 211/248/149
f 211/248/149 212/247/148 214/249/150 213/250/151
f 213/250/151 214/249/150 216/251/152 215/252/153
f 215/252/153 216/251/152 218/253/154 217/254/155
f 217/254/155 218/253/154 220/255/156 219/256/157
f 219/256/157 220/255/156 222/257/158 221/258/159
f 221/258/159 222/257/158 224/259/160 223/260/161
f 223/260/161 224/259/160 226/261/162 225/262/163
f 225/262/163 226/261/162 228/263/164 227/264/165
f 227/264/165 228/263/164 230/265/166 229/266/167
f 229/266/167 230/265/166 232/267/168 231/268/169
f 231/268/169 232/267/168 234/269/170 233/270/171
f 233/270/171 234/269/170 236/271/172 235/272/173
f 235/272/173 236/271/172 238/273/174 237/274/174
f 239/275/175 240/276/175 242/277/176 241/278/177
f 241/278/177 242/277/176 244/279/178 243/280/178
f 243/280/178 244/279/178 246/281/179 245/282/180
f 245/282/180 246/281/179 248/283/181 247/284/182
f 247/284/182 248/283/181 250/285/183 249/286/184
f 249/286/184 250/285/183 252/287/185 251/288/185
f 251/288/185 252/287/185 254/289/186 253/290/187
f 253/290/187 254/289/186 256/291/188 255/292/189
f 255/292/189 256/291/188 258/293/190 257/294/191
f 257/294/191 258/293/190 260/295/192 259/296/192
f 259/296/192 260/295/192 262/297/193 261/298/194
f 261/298/194 262/297/193 264/299/195 263/300/196
f 263/300/196 264/299/195 266/301/197 265/302/198
f 265/302/198 266/301/197 268/303/199 267/304/199
f 267/304/199 268/303/199 270/305/200 269/306/201
f 269/306/201 270/305/200 272/307/202 271/308/202
f 273/309/203 274/310/203 276/311/204 275/312/205
f 275/312/205 276/311/204 278/313/206 277/314/207
f 277/314/207 278/313/206 280/315/208 279/316/209
f 279/316/209 280/315/208 282/317/210 281/318/211
f 281/318/211 282/317/210 284/319/212 283/320/213
f 283/320/213 284/319/212 286/321/214 285/322/215
f 285/322/215 286/321/214 288/323/216 287/324/217
f 287/324/217 288/323/216 290/325/218 289/326/219
f 289/326/219 290/325/218 292/327/220 291/328/221
f 291/328/221 292/327/220 294/329/222 293/330/223
f 293/330/223 294/329/222 296/331/224 295/332/225
f 295/332/225 296/331/224 298/333/226 297/334/227
f 297/334/227 298/333/226 300/335/228 299/336/229
f 299/336/229 300/335/228 302/337/230 301/338/231
f 301/338/231 302/337/230 304/339/232 303/340/233
f 303/340/233 304/339/232 306/341/234 305/342/234
f 307/343/235 308/344/235 310/345/236 309/346/237
f 309/346/237 310/345/236 312/347/238 311/348/239
f 311/348/239 312/347/238 314/349/240 313/350/241
f 313/350/241 314/349/240 316/351/242 315/352/243
f 315/352/243 316/351/242 318/353/244 317/354/245
f 317/354/245 318/353/244 320/355/246 319/356/247
f 319/356/247 320/355/246 322/357/248 321/358/249
f 321/358/249 322/357/248 324/359/250 323/360/251
f 323/360/251 324/359/250 326/361/252 325/362/253
f 325/362/253 326/361/252 328/363/254 327/364/255
f 327/364/255 328/363/254 330/365/256 329/366/257
f 329/366/257 330/365/256 332/367/258 331/368/259
f 331/368/259 332/367/258 334/369/260 333/370/261
f 333/370/261 334/369/260 336/371/262 335/372/263
f 335/372/263 336/371/262 338/373/264 337/374/265
f 337/374/265 338/373/264 340/375/266 339/376/266
f 341/377/267 342/378/267 344/379/268 343/380/268
f 343/380/268 344/379/268 346/381/269 345/382/269
f 345/382/269 346/381/269 348/383/270 347/384/270
f 347/384/270 348/383/270 350/385/271 349/386/271
f 349/386/271 350/385/271 352/387/272 351/388/272
f 351/388/272 352/387/272 354/389/273 353/390/273
f 353/390/273 354/389/273 356/391/274 355/392/274
f 355/392/274 356/391/274 358/393/275 357/394/275
f 357/394/275 358/393/275 360/395/276 359/396/276
f 359/396/276 360/395/276 362/397/277 361/398/277
f 361/398/277 362/397/277 364/399/278 363/400/278
f 363/400/278 364/399/278 366/401/279 365/402/279
f 365/402/279 366/401/279 368/403/280 367/404/280
f 367/404/280 368/403/280 370/405/281 369/406/281
f 369/406/281 370/405/281 372/407/282 371/408/282
f 371/408/282 372/407/282 374/409/283 373/410/283
f 375/411/94 376/412/94 378/413/95 377/414/95
f 377/414/95 378/413/95 380/415/96 379/416/96
f 379/416/96 380/415/96 382/417/97 381/418/97
f 381/418/97 382/417/97 384/419/98 383/420/98
f 383/420/98 384/419/98 386/421/99 385/422/99
f 385/422/99 386/421/99 388/423/100 387/424/100
f 387/424/100 388/423/100 390/425/101 389/426/101
f 389/426/101 390/425/101 392/427/102 391/428/102
f 391/428/102 392/427/102 394/429/103 393/430/103
f 393/430/103 394/429/103 396/431/104 395/432/104
f 395/432/104 396/431/104 398/433/105 397/434/105
f 397/434/105 398/433/105 400/435/106 399/436/106
f 399/436/106 400/435/106 402/437/107 401/438/107
f 401/438/107 402/437/107 404/439/108 403/440/108
f 403/440/108 404/439/108 406/441/109 405/442/109
f 405/442/109 406/441/109 408/443/110 407/444/110
f 409/445/284 410/446/284 412/447/285 411/448/286
f 411/448/286 412/447/285 414/449/287 413/450/288
f 413/450/288 414/449/287 416/451/289 415/452/290
f 415/452/290 416/451/289 418/453/291 417/454/292
f 417/454/292 418/453/291 420/455/293 419/456/294
f 419/456/294 420/455/293 422/457/295 421/458/296
f 421/458/296 422/457/295 424/459/297 423/460/298
f 423/460/298 424/459/297 426/461/299 425/462/300
f 425/462/300 426/461/299 428/463/301 427/464/302
f 427/464/302 428/463/301 430/465/303 429/466/304
f 429/466/304 430/465/303 432/467/305 431/468/306
f 431/468/306 432/467/305 434/469/307 433/470/308
f 433/470/308 434/469/307 436/471/309 435/472/310
f 435/472/310 436/471/309 438/473/311 437/474/312
f 437/474/312 438/473/311 440/475/313 439/476/314
f 439/476/314 440/475/313 442/477/315 441/478/315
f 443/479/316 444/480/316 446/481/317 445/482/318
f 445/482/318 446/481/317 448/483/319 447/484/320
f 447/484/320 448/483/319 450/485/321 449/486/322
f 449/486/322 450/485/321 452/487/323 451/488/324
f 451/488/324 452/487/323 454/489/325 453/490/326
f 453/490/326 454/489/325 456/491/327 455/492/328
f 455/492/328 456/491/327 458/493/329 457/494/330
f 457/494/330 458/493/329 460/495/331 459/496/331
f 461/497/332 462/498/332 464/499/333 463/500/333
f 463/500/333 464/499/333 466/501/334 465/502/334
f 465/502/334 466/501/334 468/503/335 467/504/335
f 467/504/335 468/503/335 470/505/336 469/506/336
f 469/506/336 470/505/336 472/507/337 471/508/337
f 471/508/337 472/507/337 474/509/338 473/510/338
f 473/510/338 474/509/338 476/511/339 475/512/339
f 475/512/339 476/511/339 478/513/340 477/514/340
f 493/515/2 494/516/2 496/517/2 495/518/2
f 495/518/2 496/517/2 498/519/2 497/520/2
f 497/520/2 498/519/2 500/521/2 499/522/2
f 499/522/2 500/521/2 502/523/2 501/524/2
f 501/524/2 502/523/2 504/525/2 503/526/2
f 503/526/2 504/525/2 506/527/2 505/528/2
f 523/529/341 524/530/341 526/531/342 525/532/342
f 525/532/342 526/531/342 528/533/343 527/534/343
f 527/534/343 528/533/343 530/535/344 529/536/344
f 531/537/345 532/538/345 534/539/346 533/540/346
f 533/540/346 534/539/346 536/541/347 535/542/347
f 535/542/347 536/541/347 538/543/348 537/544/348
f 539/545/349 540/546/349 542/547/350 541/548/351
f 541/548/351 542/547/350 544/549/352 543/550/353
f 543/550/353 544/549/352 546/551/354 545/552/354
f 553/553/2 554/554/2 555/555/2
f 556/556/2 557/557/2 558/558/2
